<svg xmlns="http://www.w3.org/2000/svg" viewBox="0 0 500 500"><g id="freepik--Floor--inject-90"><path id="freepik--floor--inject-90" d="M95.59,277.88c-85.28,49.23-85.27,129.06,0,178.29s223.54,49.24,308.82,0,85.27-129.06,0-178.29S180.87,228.64,95.59,277.88Z" style="fill:#fafafa"></path></g><g id="freepik--Shapes--inject-90"><g id="freepik--Background--inject-90"><path d="M97.62,229.43a60.14,60.14,0,0,1,4.64-17.74c9-20.71,19.41-33,33.94-49.52,16.26-18.47,25-35.21,40.17-54.39,16-20.26,47.25-35.15,72.45-38.88s54,.56,74.1,15.54a147,147,0,0,1,47.59,61.4c14.6,35.09,15.8,75.52-.77,111.25C356,286.64,328,307.6,297.5,319c-59.93,22.43-99.91,17.32-143.26-2.53-19.06-8.73-37.31-25.95-47.54-44.26A73.19,73.19,0,0,1,97.62,229.43Z" style="fill:#5889F7;opacity:0.1"></path><path d="M434.78,160.52a38.87,38.87,0,0,1,8,8.69c8.12,12.11,8.68,27.24,12.61,40.88,4.4,15.25,15.72,27,20.89,41.86,5.46,15.74,3.14,33.75-3.59,48.75s-22.25,27-37.39,32.73A94.9,94.9,0,0,1,385.41,338c-24.16-4.25-46.56-17.65-60.23-39.08-11.31-17.73-13-40.25-8.58-60.81,8.63-40.38,25.3-60.35,51.16-77,11.38-7.34,27.08-11.28,40.59-10.48A47.2,47.2,0,0,1,434.78,160.52Z" style="fill:#5889F7;opacity:0.1"></path><path d="M84.74,356.29a38.92,38.92,0,0,1-10-6.32c-11-9.6-15.41-24.08-22.73-36.24-8.18-13.61-22.14-22-31-35.06-9.34-13.8-11.74-31.8-9.11-48s14.53-31.8,27.68-41.26a94.91,94.91,0,0,1,47.07-17.27c24.43-2.13,49.54,5,68.27,22.22,15.5,14.2,22.92,35.54,24,56.53C181,292.1,170,315.7,149.35,338.48c-9.09,10-23.25,17.88-36.51,20.59A47.24,47.24,0,0,1,84.74,356.29Z" style="fill:#5889F7;opacity:0.1"></path><path d="M152.64,107c-2.1,1.59-4.43,3.22-7.06,3.2-2.85,0-5.39-2.09-6.67-4.63a16.86,16.86,0,0,1-1.37-8.33,40.23,40.23,0,0,1,12.29-27.14c8.44-8,27.75-17.54,34.95-3.28,4.65,9.2-3.67,15.5-9.84,21.32A271,271,0,0,1,152.64,107Z" style="fill:#5889F7;opacity:0.1"></path></g></g><g id="freepik--character-2--inject-90"><g id="freepik--character--inject-90"><g id="freepik--Backpack--inject-90"><path d="M299.91,195.72l-20.11-8-1.91-24.82s12.61,3.5,15.26,7.79C297.43,177.58,300.66,187.48,299.91,195.72Z" style="fill:#5889F7"></path><path d="M299.91,195.72l-20.11-8-1.91-24.82s12.61,3.5,15.26,7.79C297.43,177.58,300.66,187.48,299.91,195.72Z" style="opacity:0.5"></path><path d="M248.57,154.42c-5.67.39-12.46,5.11-13.88,7.5-2.6,4.38-6.19,59.65-.86,65.09,6.69,6.83,37.74,18.67,50.77,17.14,10.75-1.26,17.08-9,18.47-12,2.29-4.95-8.27-54-12.16-59.18C284.61,164.64,255.8,153.92,248.57,154.42Z" style="fill:#5889F7"></path><path d="M248.57,154.42c-5.67.39-12.46,5.11-13.88,7.5-2.6,4.38-6.19,59.65-.86,65.09,6.69,6.83,37.74,18.67,50.77,17.14,10.75-1.26,17.08-9,18.47-12,2.29-4.95-8.82-55.6-12.71-60.73C284.06,163.08,255.8,153.92,248.57,154.42Z" style="opacity:0.30000000000000004"></path><path d="M279.52,211.35A251.06,251.06,0,0,1,278,175.29c-.41-3.54,3.1-10.69,3.1-10.69,4.13,2.19,7.5,4.53,9.22,6.81,3.89,5.13,15,55.76,12.72,60.73h0c-.07.16-.16.33-.25.51l0,.06c-.1.18-.21.36-.33.56l-.05.08c-.13.2-.27.41-.42.62l-.05.08c-.16.22-.33.45-.52.69h0a20.28,20.28,0,0,1-1.36,1.58h0c-.26.27-.53.55-.81.82l0,0a25.55,25.55,0,0,1-11.31,6.35C281.1,243,281.4,227.79,279.52,211.35Z" style="fill:#5889F7"></path><path d="M278,175.29c-.41-3.54,3.1-10.69,3.1-10.69,4.13,2.19,7.5,4.53,9.22,6.81a4.52,4.52,0,0,1,.41.66c0,1-1.8,3.47-3,4.5a40.52,40.52,0,0,1-9.88,5.86C277.92,178,278,175.29,278,175.29Z" style="opacity:0.4"></path><path d="M297.59,205.62c-.25-.1-4-2.41-4.41-2.58-.75-.3-10.49,7.66-11.34,8.94-.59.89,2.54,22.33,3,23.2.17.32,4.23,2.27,4.41,2.58.49.88,10.8-7.25,11.32-9S298.69,206.06,297.59,205.62Z" style="fill:#5889F7"></path><path d="M297.59,205.62c-.25-.1-4-2.41-4.41-2.58-.75-.3-10.49,7.66-11.34,8.94-.59.89,2.54,22.33,3,23.2.17.32,4.23,2.27,4.41,2.58.49.88,10.8-7.25,11.32-9S298.69,206.06,297.59,205.62Z" style="opacity:0.18"></path><path d="M286.25,214.56c-.6.89,2.54,22.32,3,23.2s10.8-7.25,11.32-9-1.91-22.66-3-23.1C296.84,205.32,287.1,213.28,286.25,214.56Z" style="fill:#5889F7"></path><path d="M293.18,203c.42.17,4.16,2.48,4.4,2.58-.74-.3-10.48,7.66-11.33,8.93L281.84,212C282.69,210.7,292.43,202.74,293.18,203Z" style="opacity:0.4"></path><path d="M286.25,214.56c-.6.89,2.54,22.32,3,23.2s10.8-7.25,11.32-9-1.91-22.66-3-23.1C296.84,205.32,287.1,213.28,286.25,214.56Z" style="opacity:0.30000000000000004"></path><path d="M281.84,212c.72-.57,3.15.45,4.22,1.21s2.53,4.69,5.16,5.09,5.95-3.34,6.52-5.59,1-6.91-.35-8.43-3.66-2.21-5.39-1.06S281.88,210,281.84,212Z" style="fill:#5889F7"></path><path d="M281.84,212c.72-.57,3.15.45,4.22,1.21s2.53,4.69,5.16,5.09,5.95-3.34,6.52-5.59,1-6.91-.35-8.43-3.66-2.21-5.39-1.06S281.88,210,281.84,212Z" style="opacity:0.1"></path><path d="M293.59,212.69a1.94,1.94,0,0,0-.73,1.86.77.77,0,0,0,1.24.57,1.86,1.86,0,0,0,.73-1.85A.77.77,0,0,0,293.59,212.69Z" style="fill:#37474f"></path><path d="M277.92,182.43s-.85-2.1,7.7-8.3c5.64-4.08,6.3-3.19,9,2.06,1.51,3,3.1,6.66,5.33,19.53,1.13-.12,1.7-3.67-.07-11.34-2.74-11.86-6.1-18-12.59-21.19-16.56-8.14-27.73-11.12-38.12-9.35-9.7,1.64-16,5.06-15.74,13.81C233.39,167.65,247.11,183.24,277.92,182.43Z" style="fill:#5889F7"></path><path d="M277.92,182.43s-.85-2.1,7.7-8.3c5.64-4.08,6.3-3.19,9,2.06,1.51,3,3.1,6.66,5.33,19.53,1.13-.12,1.7-3.67-.07-11.34-2.74-11.86-6.1-18-12.59-21.19-16.56-8.14-27.73-11.12-38.12-9.35-9.7,1.64-16,5.06-15.74,13.81C233.39,167.65,247.11,183.24,277.92,182.43Z" style="opacity:0.35000000000000003"></path></g><g id="freepik--bottom--inject-90"><path d="M206,379.17c.46,6.22.91,10-1,14.84-3.06,7.89-6.27,13.95-8.19,15.91s-.28,3.54,4.52,4.35,10.6-1,13.73-5.35,5.35-8.43,7.68-10.31,1.22-5,.79-8.86c-.9-8.19,1.76-26.72,1.76-26.72l-20.41-.54S205.43,371.45,206,379.17Z" style="fill:#ffa8a7"></path><path d="M225.88,397.5a7.22,7.22,0,0,1,.24,2.75c-.21,1.17-2.38,3.34-3.82,4.46a10,10,0,0,0-3.8,6.31,17.78,17.78,0,0,1-6.63,10.13,28.72,28.72,0,0,1-15.6,5c-7,.32-8.49-3.26-8.49-3.26s-1.25-3.41.27-4.32S225.88,397.5,225.88,397.5Z" style="fill:#263238"></path><path d="M223.07,382.35l.07,0c.6.42.53,2.36.67,3.07a36.19,36.19,0,0,0,1.58,5.46c.65,1.78,1.5,4.63.49,6.57-1.31,3-5.32,4.75-7.11,8.84s-4.11,11.28-12.45,14.82-15.68,2.36-17.91.37S187.09,417,192,413c5.18-4.32,10.7-15,10.7-15a34,34,0,0,0,2.46-6.33,16,16,0,0,0,.7-3.48,12.09,12.09,0,0,0-.87-3.58.81.81,0,0,1,0-.53.78.78,0,0,1,.46-.37c3.14-1.37,6.76-1.23,10.12-.51,1,.23,2.25.65,2.59,1.67.28.84-.11,1.84.36,2.58a.32.32,0,0,0,.23.18c.21,0,.3-.25.31-.46l.15-2.12a2.46,2.46,0,0,1,.41-1.47,2.07,2.07,0,0,1,.66-.48C220.81,382.71,222.37,382,223.07,382.35Z" style="fill:#37474f"></path><path d="M211.49,418s-1.37-5.79-8.81-7.52-10.92,1.17-12.59,3c-2,2.15-4.55,6.3-1.82,8.31,2.95,2.17,6.9,2.66,13.66,1.27S211.49,418,211.49,418Z" style="fill:#fafafa"></path><path d="M215.56,396.76a.82.82,0,0,1-.67-.17c-1-.82-6.77-3.44-11.1-1.22-.37-.45-.11-1.06.7-1.8,4.78-1.47,10.24,1,11.45,2a.65.65,0,0,1,.05,1A.89.89,0,0,1,215.56,396.76Z" style="fill:#fafafa"></path><path d="M202,399.23a2.15,2.15,0,0,1,.93-1.81,15.16,15.16,0,0,1,10.85,2.16.65.65,0,0,1,.05,1,.87.87,0,0,1-.43.21.81.81,0,0,1-.67-.16C211.72,399.82,206.25,397.34,202,399.23Z" style="fill:#fafafa"></path><path d="M205.05,391.91a1.24,1.24,0,0,1,.46-1.92c5-2.34,11.31.46,12.62,1.53a.65.65,0,0,1,.05,1,.82.82,0,0,1-.42.22.83.83,0,0,1-.68-.17C216,391.69,209.43,388.72,205.05,391.91Z" style="fill:#fafafa"></path><path d="M196.51,407.88a4,4,0,0,1,1.6-2.29c4.73-1.34,10.06,1.07,11.26,2a.65.65,0,0,1,0,1,.81.81,0,0,1-.43.22.84.84,0,0,1-.67-.16C207.25,407.81,200.9,404.94,196.51,407.88Z" style="fill:#fafafa"></path><path d="M211.18,404.81a.81.81,0,0,1-.67-.16c-1-.81-6.64-3.38-11-1.29a2.45,2.45,0,0,1,1.16-1.91c4.62-1.1,9.69,1.21,10.85,2.15a.65.65,0,0,1,.05,1A.81.81,0,0,1,211.18,404.81Z" style="fill:#fafafa"></path><path d="M278.63,385c-.23-8.67-.41-21.43-.41-21.43l-21,3.89s4.16,14,4.88,19.36,1,10.64,3,12.73S282,403.55,278.63,385Z" style="fill:#ffa8a7"></path><path d="M265,421.41c.53,4.92,1.44,8.15,3.29,10.95s5.09,3.53,8.29,2.5,7.23-3.53,7.94-7.84,1.1-7.26.13-11.79Z" style="fill:#263238"></path><path d="M278.63,385c1.34,0,1.32,6.59,2.44,13.18,1.19,7.07,2.33,9.83,3.37,15.62,1.18,6.61.27,9.65-1.78,13.81s-9.86,8.55-14.1,3c-3.46-4.53-3.86-9.73-3.91-16.4a99.14,99.14,0,0,0-1.75-16.64c-.84-5.35-1.91-10.14-.78-10.76.27,1.44.87,4.26,1.18,5.27.12.38.72,1.26.86-.14,0-.42-.14-1.36-.12-1.78a1.75,1.75,0,0,1,1.13-1.66,12.53,12.53,0,0,1,5.62-1.61c2.61-.16,4.86-.37,6.35.31.9.42.92,1.28,1.06,2.11.17,1,.22,1.62.44,1.4C279.1,390.31,278.52,385.73,278.63,385Z" style="fill:#37474f"></path><path d="M285,417.66a17.1,17.1,0,0,1-2,10.26c-2,4.16-10.49,8.61-14.74,3.06-2.11-2.76-2.81-6.12-3.26-9.57C267.16,416.83,281.08,414.08,285,417.66Z" style="fill:#fafafa"></path><path d="M267.57,414a.49.49,0,0,0,.16-.05s6.1-3,12.18-1.92a.51.51,0,0,0,.18-1c-6.44-1.16-12.61,1.9-12.83,2a.52.52,0,0,0-.2.69A.47.47,0,0,0,267.57,414Z" style="fill:#f0f0f0"></path><path d="M279.36,407.08a.49.49,0,0,0,.4-.36.53.53,0,0,0-.34-.64c-6.1-1.75-12.58,1.76-12.82,1.91a.51.51,0,0,0-.17.7.48.48,0,0,0,.67.18c.06,0,6.38-3.44,12-1.8A.5.5,0,0,0,279.36,407.08Z" style="fill:#f0f0f0"></path><path d="M278.91,402.41a.51.51,0,0,0,.4-.36.51.51,0,0,0-.34-.63c-6.71-2.07-12.84,1.72-13.06,1.88a.51.51,0,0,0-.13.71.48.48,0,0,0,.69.14s6-3.67,12.22-1.75A.55.55,0,0,0,278.91,402.41Z" style="fill:#f0f0f0"></path><path d="M278.34,397.82a.51.51,0,0,0,.07-1c-6.29-2-12.9,1.86-13.14,2a.52.52,0,0,0-.15.71.48.48,0,0,0,.69.15c.05,0,6.46-3.81,12.31-1.92A.42.42,0,0,0,278.34,397.82Z" style="fill:#ebebeb"></path><path d="M271.36,225c5.05,16.83,5.16,26.63,4.24,49.51-.36,9-1.5,33.07-1.28,36.59.5,8.08,3.4,10.89,4.08,29.93.62,17.45.58,35.32.58,35.32a14.29,14.29,0,0,1-9.69,4.49,15.93,15.93,0,0,1-9.46-1.89s-13.33-43.16-15.6-53.61a266.48,266.48,0,0,1-4.93-37.36l-11.72,27s1.93,9.27.77,24.43c-.92,12.09-4.19,33.51-4.19,33.51a13.57,13.57,0,0,1-8.52,2.79c-7.38-.21-10.18-2.44-10.18-2.44s-6.55-43.75-6.66-61c-.15-23.58,12.75-60.72,13.45-79.63Z" style="fill:#37474f"></path><path d="M239.3,287.77l-1.09-26s-9.64-2.8-15.74-9.62c.38,5,8.88,11.58,12.89,12.64L237.9,287l-10.32,27.78Z" style="fill:#263238"></path><path d="M254.8,231.31a41.17,41.17,0,0,1,3.49,8,76.71,76.71,0,0,1,2.28,8.44c.59,2.86,1.07,5.73,1.38,8.63a59.43,59.43,0,0,1,.41,8.75c-.63-2.85-1.21-5.68-1.78-8.52s-1.14-5.65-1.75-8.47-1.22-5.62-1.87-8.43S255.6,234.12,254.8,231.31Z" style="fill:#263238"></path><path d="M258.48,232.43a31.09,31.09,0,0,1,3.75,4.5,41.22,41.22,0,0,1,3,5,37.84,37.84,0,0,1,2.27,5.46,24,24,0,0,1,1.19,5.82L266.23,248c-.84-1.73-1.68-3.45-2.56-5.16s-1.75-3.41-2.62-5.14S259.29,234.24,258.48,232.43Z" style="fill:#263238"></path><path d="M225.62,366.08l-.93,8.34s-3.28,2.32-10.43,2-9.34-2.46-9.34-2.46l-.72-7.76s3.12,1.48,9.66,1.81A28.81,28.81,0,0,0,225.62,366.08Z" style="fill:#455a64"></path><path d="M279.13,370.24l.2,8.27s-3.34,3-10.7,3.93-8.86-1-8.86-1l-1.62-7.6s2.06,1.18,8.79.38A35.82,35.82,0,0,0,279.13,370.24Z" style="fill:#455a64"></path></g><g id="freepik--top--inject-90"><g id="freepik--arm--inject-90"><path d="M188,145.39c15.59,24.44,21.84,32.8,24.26,41.47,8.22-.45,22.92-23.55,14.38-28.18-2.78-1.51-8.11-5.55-9-7,0,0-11.06-15.51-18.36-26.33-.94-6-2.69-31.23-2-39.56A5.73,5.73,0,0,1,199,82.22c2.89-2.82,4.12-6.33,6-9.5,1.5-2.48,3.05-3.35,2.65-4-.52-.76-2.21-1.8-4.44-.54-1.12.63-3.69,3.72-4.64,4.21s.35-4.34,2.84-9.3c1.43-2.84,2.14-5.34,1.52-7.49-.29-1-1.1-1.62-1.85-1.28a2.26,2.26,0,0,0-.72.59,2.11,2.11,0,0,0-.62-2.05c-1-1-1.89-.39-2.53.54l-.86,1.23a2.47,2.47,0,0,0-3,.87c-.26.33-.83,1.28-.83,1.28-.89-.33-2.3-.63-3.62,1.36a38.35,38.35,0,0,0-4,6.48,27.88,27.88,0,0,0-1.9,6,24.75,24.75,0,0,0-.92,6.27c.23,5.84,1.58,6.46.78,14-1.26,11.85-3,25.55-2.76,37.57C180.21,132.45,183.7,138.64,188,145.39Z" style="fill:#ffa8a7"></path><path d="M224.7,157a25.08,25.08,0,0,1-6.9-6.27c-2.12-2.61-13.72-18.61-13.72-18.61s1.53,5.83-5.48,12.94a17.11,17.11,0,0,1-8.24,4.53s10.58,15.61,16.2,27.21,5.78,16.64,5.78,16.64,5,2.49,10.06-11.45S224.7,157,224.7,157Z" style="fill:#455a64"></path><path d="M207.08,136.26c-.78,6.22-6,14.47-14.58,16.58.61.93,1.32,2,2.11,3.26,8.77-2.18,14.19-10.52,14.74-16.72C208.54,138.27,207.77,137.22,207.08,136.26Z" style="fill:#5889F7"></path></g><path id="freepik--Chest--inject-90" d="M257.1,159.62s2.44.44,11.73,3.4c7.37,2.34,9.92,3.31,9.92,3.31a175.5,175.5,0,0,1-3.6,32.38c-.82,3.82-1.1,13-1,21.12.19,11.74.74,13.12,1.25,23.69,0,0-12.94,8.8-39.52,6.79-20.88-1.57-24.77-9.49-24.77-9.49s1.07-30.51,1.18-45.91c.14-20.79,7.87-34.35,12.38-37.89l12.23.75Z" style="fill:#fafafa"></path><path d="M255.89,164.18a10.87,10.87,0,0,0,3.08-4.11c-1.37-.36-1.87-.45-1.87-.45l-20.17-1.85-2.36-.15c-2.39,2.8-3.78,6.51,2.7,9.06C244.24,169.42,252.53,167.07,255.89,164.18Z" style="fill:#455a64"></path><g id="freepik--head--inject-90"><path d="M262.1,117.84s3.1.4,4.94,4.43c.92,2,1.47,5.66-1.88,15.8a41.48,41.48,0,0,1-5.55,11.09,5.07,5.07,0,0,1-3.07,2.2l.62-7.89.58-5.5s-4.23-4.26-4.4-8.24c-.23-5.12,1.91-7.9,1.91-7.9Z" style="fill:#263238"></path><path d="M263.33,117.51c-.54-4.48-5.9-10.08-16.74-11.24-8.88-.94-14,2-17.63,6.88-4,5.41-1.69,11.87-1.69,11.87l28.09-.36Z" style="fill:#263238"></path><path d="M264.42,145.52c-4.2,1.77-5.9-1.57-5.9-1.57l-1.47,16.27c-8.42,10.11-29.21,5.2-20.18-2.22l.06-3.79a29.13,29.13,0,0,1-3.73-.92c-3.49-1.15-6.91-3.1-7.76-8.62-1.06-6.89.09-13.9,2.8-23.68.52-1.89,1.46-3.93,3.26-4.7,4.46-1.93,8.33,1.39,14.26,4.07,2.46,1.11,8.53,1.87,10.18,1.2-2.24,2.22-2.79,8.53.17,11.69,0,.28-.06,2.73,1.29,3.53,1.51.9,2.85-2,4-3.15a4.57,4.57,0,0,1,7,2A7.46,7.46,0,0,1,264.42,145.52Z" style="fill:#ffa8a7"></path><path d="M236.93,154.21c4.76.22,9.34-.34,12-1.76a14,14,0,0,0,7.42-8.87c-.16,3-2.63,9.43-7,11.44s-9.34,1.87-12.46,1.77Z" style="fill:#f28f8f"></path><path d="M245.81,126.11l3.46,2.67a2.3,2.3,0,0,0-.42-3.15A2.13,2.13,0,0,0,245.81,126.11Z" style="fill:#263238"></path><path d="M230.06,125.19l4.17-1.41a2.12,2.12,0,0,0-2.72-1.42A2.31,2.31,0,0,0,230.06,125.19Z" style="fill:#263238"></path><path d="M239.08,127.63,237,138.87l-5.86-2.52A26.48,26.48,0,0,1,239.08,127.63Z" style="fill:#f28f8f"></path><path d="M233.67,129.78c-.29.94-.67-.55-1.61-.84s-2.09.72-1.8-.22a1.79,1.79,0,0,1,3.41,1.06Z" style="fill:#263238"></path><path d="M245.88,132.1c-.29.94-.66-.55-1.61-.84s-2.08.73-1.79-.22a1.78,1.78,0,0,1,3.4,1.06Z" style="fill:#263238"></path><path d="M242.91,141.11l-6.27,1.71a3.2,3.2,0,0,0,3.93,2.39A3.4,3.4,0,0,0,242.91,141.11Z" style="fill:#b16668"></path><path d="M242.2,142.18a4.21,4.21,0,0,1,.79,0,3.36,3.36,0,0,1-2.42,3.06,3.08,3.08,0,0,1-1,.09A3,3,0,0,1,242.2,142.18Z" style="fill:#f28f8f"></path></g><g id="freepik--Cap--inject-90"><path d="M229,117h.13c8.06-.64,17.34,2.31,24.59,7.31.23.15.47.33.7.49l.19.15a33.73,33.73,0,0,1,8.06,8,5,5,0,0,1,4,.48c.17-.45.75-2.42.84-2.79,1.66-7.3,3.57-16-12.49-23.49-10.83-5-21.14-2.7-24.15,4.06C230.27,112.68,229.62,115.44,229,117Z" style="fill:#455a64"></path><path d="M255,123.32a23.52,23.52,0,0,0-8-9.71c-3.91-3-12.66-4.47-16.6-5-6.91-1-8.78.22-9,1.22-.06.24-.33,1.34-.4,1.59a1,1,0,0,0,0,.67c.78,1.73,5.92,5.31,5.92,5.31,9-1,19.5,2.06,27.63,7.55Z" style="fill:#5889F7"></path><path d="M254.63,124.93A45.82,45.82,0,0,0,227,117.38s-5.14-3.58-5.92-5.31c-.42-.95.43-3.08,9-1.87,3.94.56,12.69,2.06,16.6,5A23.66,23.66,0,0,1,254.63,124.93Z" style="fill:#37474f"></path></g><g id="freepik--arm--inject-90"><path d="M267.06,163.15a34.53,34.53,0,0,0,6.51-3.35c3.39-2.11,6.51-4,7.93-5.39,5-5,18.42-16,18.42-16s-2.18-22.2-2.84-26.85-.62-4.8-1.85-8.52c-1.27-1.72-4.56-3.78-6-5.92a23.74,23.74,0,0,1-3-6.12,16.12,16.12,0,0,0-2-3.9c-1-1.58.92-2.21,2.11-1.93a5.36,5.36,0,0,1,2.75,1.61c.95,1.12,2,3.68,3.71,3.83,1.3.12.56-2.24.45-3a22,22,0,0,0-1-3.82c-.49-1.4-1.09-3.58-1.73-6.08a16.77,16.77,0,0,1-.54-5.49,3.29,3.29,0,0,1,1.34-2.67c1.1-.66,1.75.61,2.15,1.61a9.66,9.66,0,0,1,1.64,0,2.74,2.74,0,0,1,2.09,1.65,4.35,4.35,0,0,1,4.53,2.25c.32.7.39.63,1.13.77,1.36.24,1.78,1.44,2.39,2.52,1.92,3.39,3.08,5.28,4,9.08,1.18,5.08.42,10.44.76,15.6a19.57,19.57,0,0,0,1,5.31c1.69,5,2.62,8.19,4.2,13.2.91,2.89,3,8.92,4.12,13.06,2.65,9.62,3.34,9.71-4.54,17.91-10.6,11-32.6,25.66-38.87,42.3C268.3,187.91,262.18,178.6,267.06,163.15Z" style="fill:#ffa8a7"></path><path d="M299.92,138.41c.44,2.19,2.32,9.07,5.7,10.34-4.92-.39-6.69-6.94-7-9.21Z" style="fill:#f28f8f"></path><path d="M265.67,162c3.19.37,7.05-2.77,10.14-4.6A62.93,62.93,0,0,0,284.7,151c3.08-2.65,5.23-4.13,5.23-4.13s-2.22,5.23,1.46,12.29,6.83,8.77,6.83,8.77-8.3,6.88-13.45,13.86-8.38,11.73-9.48,16.3C267.43,196.74,259.87,176,265.67,162Z" style="fill:#455a64"></path><path d="M285.43,150.34l-.73.62c-1.28,1.1-2.5,2.07-3.7,3-.31,5.94,2.38,15.82,10.26,20.39,1.21-1.22,2.37-2.33,3.38-3.27C286.91,166.32,284.84,156.19,285.43,150.34Z" style="fill:#5889F7"></path></g><path d="M269.82,161.05c-3,4.14-5.64,18.53-3.34,32.83s11.65,25.72,11.65,25.72l-.33,7.91s-14.11-10.18-18.38-31.82,2.09-34.91,2.09-34.91Z" style="fill:#5889F7"></path><path d="M231.54,157.44c-8.69,7.78-18.87,25.66-19.3,43.88-4.49-14.11,2.74-38.75,11-45.22Z" style="fill:#5889F7"></path></g></g></g><g id="freepik--Lines--inject-90"><g id="freepik--lines--inject-90"><path d="M136.77,399.86l-2.44,1.06c1.65-.64,3.33-1.22,4.95-1.93l2.42-1.1c.41-.19.82-.36,1.21-.56l1.18-.62,2.34-1.27c.76-.45,1.51-.93,2.26-1.4,1.54-.9,2.94-2,4.4-3,.71-.54,1.38-1.12,2.08-1.67l1-.85,1-.91c.65-.62,1.31-1.21,1.94-1.84l1.83-1.95a61.35,61.35,0,0,0,6.44-8.51,65.59,65.59,0,0,0,7.94-19.72,67.83,67.83,0,0,0,1.45-21.15,66.76,66.76,0,0,1-.33,10.58,74.75,74.75,0,0,1-1.79,10.41,66.74,66.74,0,0,1-8,19.41,60.07,60.07,0,0,1-6.29,8.44,65.52,65.52,0,0,1-7.67,7.22c-1.41,1-2.77,2.16-4.27,3.09-.74.48-1.47,1-2.22,1.44l-2.29,1.31-1.15.67c-.38.21-.78.4-1.18.6l-2.36,1.19C138.41,399.19,137.57,399.49,136.77,399.86Z" style="fill:#455a64"></path><path d="M145.59,403.16c-2.18.91-4.47,1.53-6.71,2.31,2.29-.58,4.61-1.12,6.86-1.9s4.46-1.63,6.66-2.54a64.71,64.71,0,0,0,12.31-7.23,53,53,0,0,0,10.11-10.07,16.77,16.77,0,0,0,1-1.46l1-1.49c.32-.5.6-1,.9-1.55s.61-1,.85-1.57l.75-1.62c.26-.53.43-1.11.65-1.66a27.29,27.29,0,0,0,1-3.41,34.63,34.63,0,0,1-2.82,6.49c-.26.53-.59,1-.9,1.52s-.6,1-.93,1.49l-1,1.44a16.18,16.18,0,0,1-1.07,1.4,54.77,54.77,0,0,1-10.12,9.77,68.49,68.49,0,0,1-12,7.33C150,401.38,147.83,402.38,145.59,403.16Z" style="fill:#455a64"></path><path d="M137.25,76.17a32.54,32.54,0,0,0-8.06-8.41,35.48,35.48,0,0,0-10.53-5.12,44.09,44.09,0,0,0-11.58-1.72,44.67,44.67,0,0,0-11.59,1.24,46.62,46.62,0,0,1,5.78-.62,53.25,53.25,0,0,1,5.79,0,46.14,46.14,0,0,1,11.38,1.88,36.07,36.07,0,0,1,10.4,4.86,13.89,13.89,0,0,1,1.18.83c.39.29.78.57,1.16.87.72.64,1.48,1.23,2.16,1.92A40.77,40.77,0,0,1,137.25,76.17Z" style="fill:#455a64"></path><path d="M108.21,68.38a26.62,26.62,0,0,0-7.6-.51,26.3,26.3,0,0,1,3.77.36c1.25.18,2.48.44,3.7.74a49.46,49.46,0,0,1,7.15,2.36,41.7,41.7,0,0,1,6.66,3.47,28.53,28.53,0,0,1,3,2.24c.46.41,1,.81,1.41,1.25s.87.91,1.32,1.36q-.57-.75-1.17-1.5c-.42-.48-.87-.93-1.3-1.4a28.82,28.82,0,0,0-3-2.45,33.67,33.67,0,0,0-6.7-3.7A38.16,38.16,0,0,0,108.21,68.38Z" style="fill:#455a64"></path><path d="M375.42,406.58l-2.64.1c-.44,0-.88,0-1.33,0l-1.32,0-2.64-.05c-.88-.05-1.76-.13-2.64-.2-1.76-.09-3.49-.42-5.24-.65a64.9,64.9,0,0,1-10.19-2.64,60.28,60.28,0,0,1-9.57-4.37,67,67,0,0,1-16.38-13.15,74.82,74.82,0,0,1-6.58-8.27,65.1,65.1,0,0,1-5.37-9.12A67.58,67.58,0,0,0,323,386.09a65.53,65.53,0,0,0,16.45,13.47,60.71,60.71,0,0,0,9.74,4.36l2.54.83c.86.25,1.72.45,2.58.68l1.3.33,1.31.25c.88.15,1.75.33,2.63.46,1.76.19,3.52.49,5.3.54l2.66.14,2.66,0,1.33,0c.45,0,.89-.06,1.33-.09l2.65-.2c1.77-.16,3.52-.46,5.27-.69l-2.65.24C377.18,406.43,376.31,406.58,375.42,406.58Z" style="fill:#455a64"></path><path d="M364.87,414.23a68.35,68.35,0,0,1-14.08-.62,55,55,0,0,1-13.57-3.7,16.49,16.49,0,0,1-1.61-.72l-1.6-.76c-.52-.27-1-.57-1.54-.86s-1-.56-1.51-.9a34.9,34.9,0,0,1-5.6-4.33,27.25,27.25,0,0,0,2.55,2.49c.45.38.88.8,1.37,1.15l1.44,1a16.71,16.71,0,0,0,1.5,1c.51.31,1,.64,1.53.93l1.58.83c.53.28,1.06.55,1.61.78a53.28,53.28,0,0,0,13.72,4,64.8,64.8,0,0,0,14.26.42c2.37-.26,4.74-.5,7.07-1s4.63-1,6.92-1.64c-2.34.4-4.64,1-7,1.21S367.22,414.05,364.87,414.23Z" style="fill:#455a64"></path><path d="M330.47,110.58c.61-.75,1.32-1.41,2-2.1.34-.33.71-.65,1.07-1a13.87,13.87,0,0,1,1.1-.93,36.34,36.34,0,0,1,9.95-5.74A46.07,46.07,0,0,1,355.75,98a53,53,0,0,1,5.78-.48,49,49,0,0,1,5.81.11,45.06,45.06,0,0,0-11.66-.23,44.31,44.31,0,0,0-11.39,2.71,35.16,35.16,0,0,0-10.05,6,32.45,32.45,0,0,0-7.3,9.07A37.75,37.75,0,0,1,330.47,110.58Z" style="fill:#455a64"></path><path d="M348.1,107.76a33.69,33.69,0,0,0-6.36,4.27,28.78,28.78,0,0,0-2.72,2.69c-.4.51-.81,1-1.18,1.51s-.7,1.06-1,1.6q.61-.73,1.2-1.47c.42-.48.87-.92,1.3-1.38a27.64,27.64,0,0,1,2.82-2.48,42,42,0,0,1,6.34-4,50.4,50.4,0,0,1,6.92-3,37.49,37.49,0,0,1,3.62-1,27.39,27.39,0,0,1,3.72-.69,26.4,26.4,0,0,0-7.52,1.17A38.54,38.54,0,0,0,348.1,107.76Z" style="fill:#455a64"></path></g></g></svg>